<svg width="24" height="24" viewBox="0 0 24 24" fill="none" xmlns="http://www.w3.org/2000/svg">
<path d="M8.6746 11.1959C7.62012 11.1959 6.56543 11.1959 5.51053 11.1959C5.14278 11.1959 4.94725 11.3451 4.94013 11.6184C4.93301 11.8918 5.12789 12.0558 5.49175 12.0596C6.01877 12.0661 6.54644 12.0596 7.07411 12.0596C7.61214 12.0596 8.15017 12.0635 8.68819 12.0596C9.04947 12.0558 9.25018 11.8911 9.245 11.6217C9.23982 11.3522 9.03458 11.1965 8.6746 11.1959Z" fill="#4E5C62" stroke="#4E5C62" stroke-width="0.2"/>
<path d="M5.43044 10.3398C5.68942 10.3475 5.9484 10.3398 6.20737 10.3398C6.48707 10.3398 6.76612 10.3398 7.04582 10.3398C7.32551 10.3398 7.49903 10.2067 7.51457 9.91981C7.52816 9.67284 7.34882 9.49661 7.06136 9.49082C6.51362 9.48053 5.96523 9.48567 5.41684 9.49082C5.14103 9.49082 4.96363 9.61945 4.94874 9.90888C4.92996 10.1655 5.11708 10.3302 5.43044 10.3398Z" fill="#4E5C62" stroke="#4E5C62" stroke-width="0.2"/>
<path d="M21.4896 11.6576C21.4896 11.2717 21.2856 10.963 20.9069 10.8556C20.6563 10.7848 20.6272 10.6568 20.6304 10.4446C20.6382 9.84449 20.6479 9.24377 20.6252 8.6437C20.5877 7.65965 19.8755 6.96696 18.8849 6.92773C18.6369 6.91744 18.3864 6.94574 18.141 6.91808L18.0115 6.90329C17.7681 6.88386 17.5286 6.83171 17.2993 6.74829C16.0441 6.23375 14.7896 5.71708 13.5357 5.19825C11.8049 4.48177 10.0736 3.76571 8.3419 3.05008C7.51123 2.70791 6.81458 3.00634 6.47985 3.82895C6.15742 4.62348 5.8365 5.41843 5.5171 6.21381C5.23416 6.9213 5.23546 6.9213 4.48118 6.9213C3.20766 6.92644 2.5 7.62814 2.5 8.89904C2.5 12.1577 2.5 15.4152 2.5 18.6713C2.5 19.9377 3.21219 20.64 4.48701 20.6413C6.83767 20.6413 9.19006 20.6413 11.5442 20.6413C13.9393 20.6413 16.3348 20.6413 18.7308 20.6413C19.9014 20.6413 20.6252 19.9191 20.6356 18.7549C20.6401 18.187 20.6408 17.6191 20.6356 17.0512C20.6356 16.882 20.6654 16.7856 20.8577 16.7296C21.2649 16.6151 21.4928 16.3167 21.4961 15.8986C21.503 14.4862 21.5008 13.0725 21.4896 11.6576ZM6.83335 5.2555C6.98097 4.8876 7.12794 4.51907 7.28139 4.15375C7.44584 3.76271 7.63489 3.68938 8.05249 3.86175C9.13157 4.30554 10.2085 4.75061 11.2832 5.19697L12.9472 5.88516C13.7112 6.20159 14.4752 6.51739 15.234 6.89428L15.1731 6.902L13.056 6.92644C12.2577 6.64088 11.4781 6.34245 10.1593 5.87808C9.45875 5.63175 8.82101 5.41886 8.51153 5.31724C7.92883 5.12429 7.82912 5.17381 7.61158 5.72822C7.48598 6.04981 7.34872 6.36174 7.23995 6.68654C7.1752 6.87435 7.07356 6.93738 6.88321 6.92516C6.6702 6.91229 6.45525 6.92516 6.17102 6.92516C6.40733 6.32444 6.61905 5.78932 6.83335 5.2555ZM10.5711 6.902H8.09328L8.36456 6.17651L10.1399 6.75922L10.5711 6.902ZM19.7648 18.8424C19.7577 19.373 19.4216 19.7268 18.892 19.7776C18.7852 19.7879 18.6764 19.7853 18.5683 19.7853H4.58348C4.51874 19.7853 4.45399 19.7853 4.38925 19.7853C3.72173 19.7692 3.37146 19.427 3.36887 18.7652C3.36369 17.3933 3.36887 16.0208 3.36887 14.6489C3.36887 12.7306 3.36887 10.812 3.36887 8.89325C3.36887 8.10794 3.70036 7.77864 4.48895 7.77864H18.635C19.4398 7.77864 19.7674 8.10794 19.768 8.91383C19.768 9.52291 19.768 10.1313 19.768 10.779H19.3569C18.1805 10.779 17.0041 10.7623 15.8283 10.7854C15.1475 10.7917 14.4893 11.0284 13.9623 11.4565C13.4352 11.8846 13.071 12.4785 12.9297 13.1401C12.6293 14.4766 13.2877 15.8768 14.558 16.4575C14.9904 16.6463 15.4553 16.7509 15.9274 16.7656C17.0585 16.8087 18.1934 16.7798 19.3258 16.7798H19.7305C19.7481 16.8547 19.76 16.9308 19.7661 17.0074C19.7687 17.6204 19.7738 18.2314 19.7654 18.8424H19.7648ZM20.3805 15.9289C18.8713 15.9224 17.3608 15.9514 15.8529 15.9134C14.6021 15.8819 13.7092 14.9274 13.7325 13.7389C13.7558 12.5387 14.7037 11.6376 15.9675 11.6396C17.4016 11.6396 18.8351 11.6589 20.2685 11.6711C20.3747 11.6711 20.4802 11.6814 20.6285 11.6897V14.2077C20.6285 14.6895 20.6239 15.1725 20.6285 15.6529C20.6337 15.8337 20.5896 15.9301 20.3812 15.9289H20.3805Z" fill="#4E5C62" stroke="#4E5C62" stroke-width="0.2"/>
<circle cx="15.9226" cy="13.7696" r="1" stroke="#4E5C62" stroke-width="0.8"/>
</svg>
