<svg width="24" height="24" viewBox="0 0 24 24" fill="none" xmlns="http://www.w3.org/2000/svg">
<path d="M16.367 14.1766C15.4924 14.1254 14.9433 13.7788 14.4379 13.1775C14.3973 13.13 14.3492 13.0894 14.3061 13.0444C14.0425 12.7703 14.0756 12.4025 14.3804 12.1752C15.3869 11.4258 16.0203 10.4378 16.0672 9.17763C16.1297 7.58832 16.1421 5.99276 16.0816 4.40408C16.0272 2.97713 14.9127 2.0123 13.474 2.00981C12.3395 2.00981 11.205 2.00981 10.0705 2.00981C9.28711 2.00597 8.52742 2.27828 7.92495 2.77887C7.32249 3.27946 6.91581 3.9763 6.77638 4.74692C6.58897 5.73048 6.90132 6.42303 7.7247 6.92137C7.81279 6.97508 7.88338 7.1287 7.88713 7.23798C7.90462 7.75756 7.88713 8.27837 7.89712 8.79919C7.91961 10.1731 8.46562 11.2971 9.56387 12.1339C9.95307 12.4306 9.98118 12.7584 9.63759 13.1069C9.47641 13.2692 9.29399 13.4154 9.15593 13.5952C8.8392 14.0074 8.44937 14.1329 7.92274 14.1348C6.1879 14.1417 4.61173 15.5649 4.44368 17.2897C4.35248 18.2389 4.38871 19.2012 4.38933 20.1573C4.38933 20.5251 4.64297 20.7418 5.02092 20.7456C5.70811 20.7524 6.3953 20.7456 7.08249 20.7456C7.76968 20.7456 7.76094 20.7456 7.89463 21.4169C7.97209 21.8184 8.17262 21.9927 8.58181 21.9933C10.8616 21.9933 13.141 21.9933 15.42 21.9933C15.8454 21.9933 16.0447 21.8197 16.119 21.3963C16.1553 21.1927 16.1865 20.9885 16.2265 20.7456C17.1567 20.7456 18.0507 20.7456 18.9446 20.7456C19.3901 20.7456 19.6187 20.5201 19.6225 20.0724C19.6293 19.2918 19.6418 18.5112 19.6187 17.7312C19.5575 15.8796 18.1937 14.2815 16.367 14.1766ZM14.3511 14.7655C14.3894 14.8313 14.4016 14.9091 14.3854 14.9835C14.3634 15.0743 14.332 15.1626 14.2917 15.247C13.9525 16.1375 13.9519 16.1375 12.9174 16.0407L13.7726 14.1129C13.9975 14.3602 14.1849 14.5544 14.3511 14.7624V14.7655ZM12.0028 15.2027L10.9764 12.8964H13.0198L12.0028 15.2027ZM7.90962 5.19405C7.9952 4.05561 8.8898 3.2007 10.0274 3.1907C11.2025 3.18071 12.3782 3.18384 13.5533 3.1907C14.2886 3.19508 14.8496 3.69029 14.9146 4.42468C14.9546 4.87744 14.9221 5.33706 14.9221 5.84913C14.4571 5.76035 14.0412 5.50332 13.7539 5.12723C13.3528 4.63264 13.1029 4.6139 12.6212 5.04043C12.031 5.57897 11.2661 5.88633 10.4672 5.90596C9.83312 5.92407 9.19841 5.91658 8.56432 5.91033C8.10453 5.90471 7.87526 5.64617 7.90962 5.19405ZM9.07722 8.95094C9.04973 8.34145 9.07284 7.72945 9.07284 7.07749C9.53263 7.07749 9.93745 7.07749 10.3429 7.07749C11.2444 7.09221 12.1283 6.82736 12.873 6.31937C13.0554 6.19447 13.1504 6.23881 13.3278 6.34247C13.7651 6.59227 14.2324 6.78648 14.6834 7.01317C14.7778 7.06001 14.9208 7.14993 14.9215 7.22175C14.9283 7.88682 14.9652 8.55814 14.8871 9.2151C14.7028 10.7713 13.4059 11.8204 11.8216 11.7574C10.3573 11.6993 9.14531 10.4716 9.07722 8.95094ZM10.2598 14.1822L11.0969 16.0557C10.7371 16.0557 10.4229 16.0619 10.1099 16.0501C10.0599 16.0501 9.9968 15.9733 9.96806 15.9177C9.91555 15.8047 9.86966 15.6888 9.83063 15.5705C9.52951 14.7624 9.53014 14.7624 10.2598 14.1822ZM7.81279 16.0613C7.29739 16.0657 7.06313 16.3261 7.14309 16.8363C7.26241 17.6169 7.39672 18.3975 7.52417 19.1744C7.54228 19.2861 7.55478 19.3992 7.57727 19.5672H5.55568C5.6219 18.6698 5.41699 17.7836 5.72561 16.9275C5.91494 16.4162 6.26518 15.9801 6.72369 15.6848C7.18219 15.3896 7.72419 15.251 8.26821 15.2901C8.32336 15.2999 8.37577 15.3214 8.42189 15.3532C8.46802 15.385 8.50679 15.4263 8.53559 15.4743C8.62742 15.6435 8.67302 15.8371 8.75236 16.0607C8.41314 16.0607 8.1139 16.0582 7.81279 16.0613ZM15.3563 18.7647C15.2582 19.3705 15.147 19.9743 15.0595 20.5813C15.0326 20.7687 14.9564 20.8193 14.7778 20.8186C12.9249 20.8143 11.0719 20.8186 9.21778 20.8086C9.12719 20.8086 8.96789 20.7125 8.95852 20.6407C8.76298 19.5253 8.58369 18.4063 8.39627 17.2516H15.5943C15.5137 17.768 15.4393 18.267 15.3588 18.7647H15.3563ZM18.3974 19.5472H16.4189L16.7181 17.6956C16.7681 17.3877 16.8281 17.0811 16.8643 16.772C16.9162 16.3348 16.6813 16.0738 16.244 16.0638C15.9422 16.0563 15.6405 16.0594 15.3394 16.0557C15.3225 16.0557 15.3057 16.0376 15.2638 16.0126C15.3369 15.8153 15.3994 15.6073 15.4931 15.4137C15.5177 15.3788 15.5495 15.3497 15.5863 15.3281C15.6232 15.3066 15.6642 15.2932 15.7067 15.2888C16.9755 15.1752 18.2137 16.0894 18.3805 17.354C18.4742 18.0647 18.3974 18.7978 18.3974 19.5472Z" fill="#4E5C62"/>
<path d="M4.74494 6.34563C4.74494 5.68056 4.74494 5.01486 4.74494 4.34729C4.74494 4.2636 4.75869 4.17992 4.76618 4.09749L4.85177 4.06002C4.91424 4.1437 4.97172 4.23238 5.03919 4.30982C5.11544 4.39521 5.19658 4.47611 5.2822 4.55212C5.56395 4.80316 5.87631 4.8094 6.1212 4.57272C6.36609 4.33604 6.37546 4.00444 6.11745 3.73716C5.61143 3.21385 5.09666 2.69906 4.57315 2.19282C4.30764 1.93678 4.00215 1.93678 3.7379 2.18657C3.21563 2.69449 2.69983 3.20948 2.19047 3.73154C1.94058 3.99133 1.94058 4.33417 2.1761 4.56773C2.41162 4.80129 2.7421 4.8119 3.01135 4.55524C3.1744 4.39974 3.30622 4.21177 3.4524 4.03817L3.56485 4.12247C3.56485 4.87185 3.56485 5.61624 3.56485 6.36374C3.56485 6.82149 3.786 7.0844 4.15771 7.08065C4.52942 7.0769 4.74369 6.80775 4.74494 6.34563Z" fill="#4E5C62"/>
<path d="M21.8341 4.53771C21.6004 4.29291 21.2462 4.29104 20.9744 4.5527C20.8133 4.70757 20.6765 4.8868 20.5284 5.05228L20.4353 4.9967V4.69695C20.4353 4.00128 20.4416 3.30498 20.4316 2.60868C20.4358 2.45587 20.3797 2.30753 20.2755 2.1957C20.1712 2.08388 20.0271 2.01755 19.8743 2.01105C19.5538 1.99731 19.2896 2.24273 19.2596 2.58807C19.2508 2.69111 19.2565 2.79602 19.2565 2.90031V4.98484L19.1553 5.04729C19.0141 4.88305 18.8841 4.70632 18.7286 4.55707C18.455 4.29416 18.1039 4.29354 17.8677 4.53521C17.6316 4.77689 17.6341 5.10287 17.8958 5.3714C18.3956 5.88472 18.9027 6.39139 19.417 6.89139C19.6888 7.15555 20.0068 7.15867 20.2779 6.89576C20.7922 6.39617 21.2993 5.8893 21.7991 5.37514C22.0565 5.11036 22.0608 4.77564 21.8341 4.53771Z" fill="#4E5C62"/>
</svg>
