<svg width="24" height="24" viewBox="0 0 24 24" fill="none" xmlns="http://www.w3.org/2000/svg">
<path d="M13.8539 8.74466H10.9653C10.8184 8.74466 10.6993 8.63187 10.6993 8.49266C10.6993 8.35346 10.8184 8.24066 10.9653 8.24066H13.8539C14.0008 8.24066 14.1199 8.35346 14.1199 8.49266C14.1199 8.63187 14.0009 8.74466 13.8539 8.74466Z" fill="#4E5C62" stroke="#4E5C62" stroke-width="0.5"/>
<path d="M16.7429 7.45114H10.9655C10.8186 7.45114 10.6995 7.33835 10.6995 7.19914C10.6995 7.05994 10.8186 6.94714 10.9655 6.94714H16.7429C16.8898 6.94714 17.0089 7.05994 17.0089 7.19914C17.0089 7.33835 16.8898 7.45114 16.7429 7.45114Z" fill="#4E5C62" stroke="#4E5C62" stroke-width="0.5"/>
<path d="M13.8537 12.9676H10.965C10.8181 12.9676 10.699 12.8548 10.699 12.7156C10.699 12.5764 10.8181 12.4636 10.965 12.4636H13.8537C14.0006 12.4636 14.1197 12.5764 14.1197 12.7156C14.1197 12.8548 14.0006 12.9676 13.8537 12.9676Z" fill="#4E5C62" stroke="#4E5C62" stroke-width="0.5"/>
<path d="M16.7426 11.6741H10.9653C10.8184 11.6741 10.6993 11.5613 10.6993 11.4221C10.6993 11.2829 10.8184 11.1701 10.9653 11.1701H16.7426C16.8895 11.1701 17.0086 11.2829 17.0086 11.4221C17.0086 11.5613 16.8895 11.6741 16.7426 11.6741Z" fill="#4E5C62" stroke="#4E5C62" stroke-width="0.5"/>
<path d="M13.8537 17.1908H10.965C10.8181 17.1908 10.699 17.078 10.699 16.9388C10.699 16.7996 10.8181 16.6868 10.965 16.6868H13.8537C14.0006 16.6868 14.1197 16.7996 14.1197 16.9388C14.1197 17.078 14.0006 17.1908 13.8537 17.1908Z" fill="#4E5C62" stroke="#4E5C62" stroke-width="0.5"/>
<path d="M16.7426 15.8972H10.9653C10.8184 15.8972 10.6993 15.7845 10.6993 15.6452C10.6993 15.506 10.8184 15.3932 10.9653 15.3932H16.7426C16.8895 15.3932 17.0086 15.506 17.0086 15.6452C17.0086 15.7845 16.8895 15.8972 16.7426 15.8972Z" fill="#4E5C62" stroke="#4E5C62" stroke-width="0.5"/>
<path d="M14.1112 5.37381H9.51098C9.07375 5.37381 8.71802 5.03684 8.71802 4.62262V3.75117C8.71805 3.33695 9.07375 2.99994 9.51098 2.99994H14.1111C14.5484 2.99994 14.9041 3.33695 14.9041 3.75117V4.62262C14.9041 5.03684 14.5484 5.37381 14.1112 5.37381ZM9.51098 3.50394C9.36709 3.50394 9.25002 3.61485 9.25002 3.75117V4.62262C9.25002 4.75893 9.36709 4.86981 9.51098 4.86981H14.1111C14.255 4.86981 14.3721 4.7589 14.3721 4.62262V3.75117C14.3721 3.61482 14.255 3.50394 14.1111 3.50394H9.51098Z" fill="#4E5C62" stroke="#4E5C62" stroke-width="0.5"/>
<path d="M8.50971 9.08246H7.3275C6.93371 9.08246 6.61334 8.77895 6.61334 8.40589V7.28594C6.61334 6.91288 6.93371 6.60938 7.3275 6.60938H8.50971C8.90349 6.60938 9.22386 6.91288 9.22386 7.28594V8.40593C9.22386 8.77895 8.90349 9.08246 8.50971 9.08246ZM7.3275 7.11337C7.22706 7.11337 7.14534 7.19079 7.14534 7.28594V8.40593C7.14534 8.50108 7.22706 8.5785 7.3275 8.5785H8.50971C8.61015 8.5785 8.69186 8.50108 8.69186 8.40593V7.28594C8.69186 7.19079 8.61015 7.11337 8.50971 7.11337H7.3275Z" fill="#4E5C62" stroke="#4E5C62" stroke-width="0.5"/>
<path d="M8.50977 13.3055H7.32756C6.93377 13.3055 6.6134 13.002 6.6134 12.629V11.509C6.6134 11.1359 6.93377 10.8324 7.32756 10.8324H8.50977C8.90356 10.8324 9.22393 11.1359 9.22393 11.509V12.629C9.22393 13.002 8.90356 13.3055 8.50977 13.3055ZM7.32756 11.3364C7.22712 11.3364 7.1454 11.4138 7.1454 11.509V12.629C7.1454 12.7241 7.22712 12.8015 7.32756 12.8015H8.50977C8.61021 12.8015 8.69193 12.7241 8.69193 12.629V11.509C8.69193 11.4138 8.61021 11.3364 8.50977 11.3364H7.32756Z" fill="#4E5C62" stroke="#4E5C62" stroke-width="0.5"/>
<path d="M8.50977 17.5286H7.32756C6.93377 17.5286 6.6134 17.2251 6.6134 16.852V15.7321C6.6134 15.359 6.93377 15.0555 7.32756 15.0555H8.50977C8.90356 15.0555 9.22393 15.359 9.22393 15.7321V16.852C9.22393 17.2251 8.90356 17.5286 8.50977 17.5286ZM7.32756 15.5595C7.22712 15.5595 7.1454 15.637 7.1454 15.7321V16.8521C7.1454 16.9472 7.22712 17.0247 7.32756 17.0247H8.50977C8.61021 17.0247 8.69193 16.9472 8.69193 16.8521V15.7321C8.69193 15.637 8.61021 15.5595 8.50977 15.5595H7.32756Z" fill="#4E5C62" stroke="#4E5C62" stroke-width="0.5"/>
<path d="M17.4699 20.2032H6.15241C5.51699 20.2032 5.00006 19.7135 5.00006 19.1115V5.0266C5.00006 4.42466 5.51702 3.93494 6.15241 3.93494H7.74646C7.89336 3.93494 8.01246 4.04773 8.01246 4.18694C8.01246 4.32614 7.89336 4.43894 7.74646 4.43894H6.15241C5.81033 4.43894 5.53206 4.70256 5.53206 5.0266V19.1114C5.53206 19.4355 5.81037 19.6991 6.15241 19.6991H17.4699C17.812 19.6991 18.0902 19.4355 18.0902 19.1114V5.0266C18.0902 4.70253 17.8119 4.43894 17.4699 4.43894H15.8758C15.7289 4.43894 15.6098 4.32614 15.6098 4.18694C15.6098 4.04773 15.7289 3.93494 15.8758 3.93494H17.4699C18.1053 3.93494 18.6222 4.42466 18.6222 5.0266V19.1114C18.6222 19.7135 18.1053 20.2032 17.4699 20.2032Z" fill="#4E5C62" stroke="#4E5C62" stroke-width="0.5"/>
</svg>
