<svg width="24" height="24" viewBox="0 0 24 24" fill="none" xmlns="http://www.w3.org/2000/svg">
<path d="M19.8798 13.8203V14.2445C19.8798 16.0509 19.8798 17.8576 19.8798 19.6649C19.8798 21.1061 18.9983 21.9915 17.5635 21.9972C16.6145 22.0009 15.665 22.0009 14.7151 21.9972C14.1323 21.9972 13.9351 21.7929 13.9351 21.1976C13.9351 19.7463 13.9351 18.2946 13.9351 16.8425C13.9351 16.0761 13.5664 15.7077 12.8083 15.7058C12.2555 15.7058 11.7021 15.702 11.1493 15.7058C10.4945 15.7114 10.0995 16.1062 10.0976 16.7635C10.0939 18.2361 10.0976 19.7087 10.0976 21.1813C10.0976 21.8136 9.91359 21.9959 9.27255 21.9959C8.33352 21.9959 7.3945 21.9997 6.45547 21.9959C5.04506 21.989 4.15424 21.0911 4.15236 19.6774C4.15236 17.8602 4.15236 16.0429 4.15236 14.2257V13.8434C3.95737 13.8368 3.76285 13.8203 3.56954 13.7939C2.84273 13.6586 2.33065 13.2494 2.10215 12.5407C1.87366 11.8319 2.03079 11.1934 2.55038 10.6639C3.39801 9.79915 4.25941 8.94819 5.11705 8.09158C6.94126 6.26119 8.79177 4.45084 10.5891 2.58849C11.344 1.8052 12.6756 1.80646 13.4306 2.57659C16.0757 5.27403 18.745 7.94766 21.4386 10.5975C22.2292 11.3789 22.1773 12.7938 21.3303 13.4173C21.0137 13.6606 20.6297 13.7998 20.231 13.8159C20.1283 13.824 20.025 13.8203 19.8798 13.8203ZM15.1139 20.7947C16.078 20.7947 17.0039 20.821 17.9272 20.7828C18.3454 20.7658 18.6484 20.3792 18.6991 19.9544C18.7103 19.8294 18.7143 19.7038 18.711 19.5784C18.711 17.5214 18.711 15.4641 18.711 13.4067C18.711 12.8358 18.9113 12.6409 19.4879 12.6391C19.7383 12.6391 19.9887 12.6528 20.2391 12.6328C20.3564 12.6246 20.4695 12.5853 20.5665 12.5187C20.6635 12.4522 20.741 12.3609 20.7909 12.2543C20.8408 12.1477 20.8614 12.0296 20.8504 11.9124C20.8395 11.7952 20.7975 11.6831 20.7287 11.5876C20.6649 11.505 20.5943 11.4278 20.5177 11.357L12.6174 3.44573C12.1829 3.01147 11.8511 3.01147 11.4167 3.44573L6.70338 8.16427C5.60993 9.25712 4.51754 10.3495 3.42618 11.4416C3.19518 11.6715 3.10566 11.9335 3.23462 12.2361C3.35982 12.5269 3.60209 12.6472 3.91447 12.6403C4.11292 12.6359 4.31137 12.6403 4.50919 12.6403C5.13521 12.6403 5.32739 12.8327 5.32739 13.4668C5.32739 15.5556 5.32739 17.6444 5.32739 19.7332C5.32739 20.4356 5.703 20.8185 6.40978 20.8254C7.15035 20.8329 7.89093 20.8254 8.63151 20.8254C8.71289 20.8254 8.79365 20.8116 8.91196 20.8003V20.4525C8.91196 19.2093 8.90633 17.9667 8.91196 16.7241C8.91885 15.4952 9.83409 14.5578 11.0586 14.5309C11.6946 14.5158 12.3313 14.5189 12.9673 14.5309C13.2872 14.5304 13.603 14.6026 13.891 14.7419C14.179 14.8813 14.4317 15.0842 14.63 15.3355C14.9561 15.7361 15.1274 16.2407 15.1127 16.7573C15.1102 18.0914 15.1139 19.428 15.1139 20.7947Z" fill="#4E5C62" stroke="#4299BF" stroke-width="0.1"/>
</svg>
