<svg width="24" height="24" viewBox="0 0 24 24" fill="none" xmlns="http://www.w3.org/2000/svg">
<path d="M10.7344 13.6562C10.7344 12.9635 10.8203 12.4115 10.9922 12C11.1641 11.5885 11.5026 11.138 12.0078 10.6484C12.5182 10.1536 12.8411 9.80208 12.9766 9.59375C13.1849 9.27604 13.2891 8.93229 13.2891 8.5625C13.2891 8.07292 13.1667 7.70052 12.9219 7.44531C12.6823 7.1849 12.3281 7.05469 11.8594 7.05469C11.4115 7.05469 11.0495 7.18229 10.7734 7.4375C10.5026 7.6875 10.3672 8.02865 10.3672 8.46094H8.46875C8.47917 7.53906 8.79167 6.8099 9.40625 6.27344C10.026 5.73698 10.8438 5.46875 11.8594 5.46875C12.9062 5.46875 13.7214 5.73438 14.3047 6.26562C14.8932 6.79688 15.1875 7.53906 15.1875 8.49219C15.1875 9.34115 14.7917 10.1771 14 11L13.0391 11.9453C12.6953 12.3359 12.5182 12.9062 12.5078 13.6562H10.7344ZM10.6016 16.0859C10.6016 15.7786 10.6979 15.5312 10.8906 15.3438C11.0833 15.151 11.3438 15.0547 11.6719 15.0547C12.0052 15.0547 12.2682 15.1536 12.4609 15.3516C12.6536 15.5443 12.75 15.7891 12.75 16.0859C12.75 16.3724 12.6562 16.612 12.4688 16.8047C12.2812 16.9974 12.0156 17.0938 11.6719 17.0938C11.3281 17.0938 11.0625 16.9974 10.875 16.8047C10.6927 16.612 10.6016 16.3724 10.6016 16.0859Z" fill="#4E5C62"/>
</svg>
