<svg width="24" height="24" viewBox="0 0 24 24" fill="none" xmlns="http://www.w3.org/2000/svg">
<path d="M21.9254 11.7493C21.1769 8.93932 20.4237 6.13199 19.6656 3.32734C19.3849 2.28462 18.5084 1.79855 17.4715 2.07768C13.5303 3.13805 9.5886 4.19654 5.64635 5.25317C4.42983 5.574 3.95429 6.39294 4.29029 7.60249C4.39294 7.97146 4.48677 8.34363 4.5846 8.71339C3.34403 9.06551 3 9.52832 3 10.8109C3 13.5995 3 16.3902 3 19.1831C3 20.306 3.69206 20.9966 4.81235 20.9966H17.1315C18.2686 20.9966 18.9631 20.3036 18.9639 19.1679C18.9639 17.6835 18.9639 16.1991 18.9639 14.7147V14.3657C19.5613 14.2053 20.1259 14.0601 20.6872 13.9013C21.6993 13.6142 22.194 12.7559 21.9254 11.7493ZM19.4515 6.88222C19.4595 6.92232 19.2999 6.96243 19.2109 6.98809C17.9813 7.32497 16.7517 7.65704 15.522 7.98429C14.7201 8.20086 13.9182 8.42785 13.1034 8.62597C12.7828 8.70296 12.4548 8.74465 12.1251 8.75029C10.8709 8.76874 9.61587 8.7551 8.36166 8.75671L19.1812 5.84992C19.271 6.18199 19.3857 6.55977 19.4515 6.88222ZM5.78749 6.37369C7.97941 5.78174 10.1743 5.19194 12.3721 4.60427C14.1663 4.12302 15.9607 3.64176 17.7554 3.16051C18.2317 3.03377 18.4667 3.17013 18.595 3.64176C18.6936 4.0027 18.7875 4.36364 18.8957 4.77191L5.63672 8.32759C5.51804 7.8712 5.39134 7.45411 5.30633 7.03221C5.23737 6.68731 5.40577 6.47636 5.78749 6.37369ZM17.1026 19.8761H4.84442C4.2927 19.8761 4.12269 19.7037 4.12269 19.1478C4.12269 16.2972 4.12269 13.4471 4.12269 10.5975C4.12269 10.0433 4.29831 9.86279 4.84442 9.86279C8.93103 9.86279 13.0174 9.86279 17.1034 9.86279C17.6648 9.86279 17.8452 10.0441 17.846 10.6119V19.1318C17.8436 19.7037 17.6752 19.8761 17.1026 19.8761ZM20.3456 12.8386C19.8989 12.9613 19.4507 13.0792 18.9647 13.2067V10.6954C18.9647 9.47618 18.421 8.86339 17.2253 8.68372L19.7418 8.00835C19.777 8.1022 19.8163 8.18882 19.8404 8.27866C20.1724 9.51976 20.503 10.7606 20.8324 12.0012C20.9567 12.4728 20.8187 12.7094 20.3456 12.8386Z" fill="#4E5C62"/>
<path d="M5.90771 14.3136C6.48028 14.3136 7.05366 14.3136 7.62704 14.3136C8.22046 14.3136 8.81308 14.3176 9.4065 14.3136C9.84836 14.3136 10.0641 14.097 10.0673 13.6591C10.0716 12.9869 10.0716 12.3148 10.0673 11.6426C10.0673 11.1886 9.84676 10.9688 9.39287 10.968C8.22687 10.9648 7.06061 10.9648 5.89408 10.968C5.45463 10.968 5.24051 11.1846 5.23811 11.6258C5.23329 12.2979 5.23329 12.9703 5.23811 13.643C5.23971 14.105 5.4458 14.3104 5.90771 14.3136ZM6.37203 12.1062H8.93818V13.185H6.37203V12.1062Z" fill="#4E5C62"/>
<path d="M9.43783 17.6607C8.84521 17.6567 8.25259 17.6607 7.65997 17.6607C7.06735 17.6607 6.47553 17.6607 5.8829 17.6607C5.48996 17.6607 5.24698 17.8717 5.24137 18.2021C5.23575 18.5326 5.48194 18.7636 5.86286 18.7636C7.05772 18.7684 8.25259 18.7684 9.44745 18.7636C9.80832 18.7636 10.0585 18.5302 10.0657 18.2174C10.073 17.9046 9.81634 17.6631 9.43783 17.6607Z" fill="#4E5C62"/>
<path d="M16.174 10.9713C15.5629 10.9595 14.951 10.9595 14.3383 10.9713C14.1881 10.9715 14.044 11.031 13.9374 11.1369C13.8308 11.2428 13.7702 11.3865 13.769 11.5368C13.7746 11.8375 14.0208 12.0758 14.3536 12.0854C14.6495 12.0934 14.9454 12.0854 15.2421 12.0854C15.5388 12.0854 15.854 12.0918 16.1595 12.0854C16.5027 12.0758 16.7313 11.852 16.7353 11.5376C16.7378 11.4629 16.7251 11.3885 16.6978 11.319C16.6706 11.2495 16.6294 11.1863 16.5768 11.1332C16.5243 11.0802 16.4614 11.0385 16.3921 11.0106C16.3228 10.9828 16.2486 10.9694 16.174 10.9713Z" fill="#4E5C62"/>
<path d="M16.1619 13.2075C15.866 13.2003 15.5701 13.2075 15.2742 13.2075C14.9783 13.2075 14.6623 13.2019 14.3568 13.2075C14.0192 13.2147 13.7762 13.4441 13.7698 13.7473C13.7698 13.8214 13.7845 13.8948 13.813 13.9633C13.8415 14.0317 13.8833 14.0938 13.9359 14.146C13.9885 14.1982 14.051 14.2395 14.1196 14.2674C14.1883 14.2953 14.2618 14.3094 14.3359 14.3088C14.9475 14.3205 15.5591 14.3205 16.1707 14.3088C16.5148 14.3023 16.7369 14.0681 16.7321 13.7513C16.7273 13.4345 16.5083 13.2155 16.1619 13.2075Z" fill="#4E5C62"/>
<path d="M5.78341 16.5378C5.97026 16.549 6.15871 16.5378 6.34476 16.5378C6.5308 16.5378 6.72006 16.5458 6.9061 16.5378C7.05328 16.5412 7.19578 16.486 7.30226 16.3843C7.40873 16.2826 7.47046 16.1428 7.47387 15.9956C7.47727 15.8484 7.42207 15.7058 7.3204 15.5993C7.21874 15.4928 7.07894 15.4311 6.93176 15.4277C6.53774 15.4076 6.14295 15.4076 5.74893 15.4277C5.6089 15.4371 5.47783 15.5 5.38278 15.6033C5.28772 15.7065 5.23594 15.8424 5.2381 15.9827C5.2397 16.1278 5.29737 16.2666 5.39903 16.3701C5.50068 16.4736 5.63843 16.5337 5.78341 16.5378Z" fill="#4E5C62"/>
<path d="M10.2677 15.4277C9.88438 15.41 9.49865 15.41 9.11533 15.4277C8.97159 15.4345 8.83611 15.4969 8.73742 15.6017C8.63872 15.7064 8.5845 15.8454 8.58616 15.9893C8.58782 16.1332 8.64524 16.2709 8.74633 16.3733C8.84742 16.4758 8.9843 16.535 9.12816 16.5386C9.31501 16.549 9.50266 16.5386 9.68951 16.5386C9.87636 16.5386 10.0648 16.5466 10.2509 16.5386C10.3948 16.5356 10.532 16.4768 10.6335 16.3746C10.7351 16.2725 10.7929 16.1349 10.795 15.9909C10.7971 15.8468 10.7432 15.7076 10.6447 15.6026C10.5462 15.4975 10.4107 15.4348 10.2669 15.4277H10.2677Z" fill="#4E5C62"/>
<path d="M13.6071 15.4277C13.2229 15.41 12.8372 15.41 12.4539 15.4277C12.3067 15.4296 12.1663 15.4899 12.0636 15.5953C11.9609 15.7008 11.9043 15.8427 11.9062 15.9899C11.9081 16.1371 11.9684 16.2776 12.0738 16.3803C12.1792 16.483 12.3211 16.5397 12.4683 16.5378C12.6552 16.5482 12.8428 16.5378 13.0297 16.5378C13.2165 16.5378 13.405 16.5458 13.591 16.5378C13.735 16.5346 13.8721 16.4757 13.9735 16.3735C14.0749 16.2713 14.1327 16.1337 14.1346 15.9897C14.1366 15.8457 14.0826 15.7065 13.9841 15.6015C13.8855 15.4966 13.7501 15.4339 13.6063 15.4269L13.6071 15.4277Z" fill="#4E5C62"/>
</svg>
