<svg width="24" height="24" viewBox="0 0 24 24" fill="none" xmlns="http://www.w3.org/2000/svg">
<path d="M20.9327 13.0367L20.8765 13.4584L18.4602 13.8801C18.404 14.1332 18.3197 14.3581 18.2074 14.583C18.1231 14.8079 18.0107 15.0328 17.8702 15.2577L19.275 17.2538L19.0222 17.5912C18.6007 18.1253 18.095 18.6314 17.5611 19.0531L17.2521 19.3061L15.2572 17.9004C14.8077 18.1535 14.3581 18.3221 13.8805 18.4627L13.459 20.8805L13.0376 20.9367C12.3351 21.0211 11.6327 21.0211 10.9584 20.9367L10.5369 20.8805L10.1155 18.4627C9.86263 18.4065 9.63785 18.3221 9.41308 18.2097C9.18831 18.1253 8.96353 18.0129 8.73876 17.8723L6.74389 19.278L6.40673 19.025C5.87289 18.6033 5.36715 18.0972 4.9457 17.5631L4.69283 17.2538L6.09766 15.2577C5.84479 14.8079 5.67621 14.3581 5.53573 13.8801L3.11941 13.4584L3.06322 13.0367C2.97893 12.3339 2.97893 11.631 3.06322 10.9563L3.11941 10.5346L5.53573 10.1128C5.59192 9.85982 5.67621 9.63491 5.7886 9.41C5.87289 9.18508 5.98528 8.96017 6.12576 8.73526L4.72093 6.73916L4.9738 6.4018C5.39525 5.86763 5.90099 5.36158 6.43483 4.93987L6.77199 4.68684L8.76685 6.09254C9.2164 5.83952 9.66595 5.67083 10.1436 5.53026L10.565 3.11246L10.9865 3.05623C11.3237 3.02811 11.6889 3 12.0261 3C12.3632 3 12.7285 3.02811 13.0657 3.05623L13.4871 3.11246L13.9086 5.53026C14.1614 5.58649 14.3862 5.67083 14.611 5.78329C14.8358 5.86763 15.0605 5.98009 15.2853 6.12066L17.2802 4.71495L17.6173 4.96798C18.1512 5.38969 18.6569 5.89574 19.0784 6.42991L19.3312 6.76728L17.9264 8.76337C18.1793 9.2132 18.3478 9.66302 18.4883 10.141L20.9046 10.5627L20.9608 10.9844C21.017 11.631 21.017 12.3339 20.9327 13.0367ZM11.998 8.6228C10.1436 8.6228 8.62637 10.141 8.62637 11.9965C8.62637 13.852 10.1436 15.3702 11.998 15.3702C13.8524 15.3702 15.3696 13.852 15.3696 11.9965C15.3696 10.141 13.8524 8.6228 11.998 8.6228Z" stroke="#4E5C62" stroke-width="1.2"/>
</svg>
