<svg width="24" height="24" viewBox="0 0 24 24" fill="none" xmlns="http://www.w3.org/2000/svg">
<path d="M22.0027 13.8304C22.0027 12.9631 21.4194 12.3885 20.5468 12.3851C19.6407 12.3851 18.7345 12.3905 17.8291 12.3791C17.655 12.3771 17.4839 12.3341 17.3297 12.2536C16.0631 11.5541 14.8039 10.8439 13.5433 10.1317C13.4768 10.0903 13.4125 10.0455 13.3507 9.99745C13.3607 9.97054 13.3737 9.94486 13.3896 9.92092C14.4045 8.88986 14.0508 7.11772 12.6882 6.57937C12.6486 6.56162 12.6135 6.53512 12.5856 6.50187C12.5577 6.46862 12.5377 6.42948 12.5271 6.38739C12.509 6.11015 12.5197 5.83024 12.5197 5.51004C13.2815 5.51004 13.989 5.51407 14.6965 5.51004C15.3006 5.50534 15.6926 5.12071 15.7033 4.51523C15.7127 4.01581 15.712 3.51572 15.7033 3.01562C15.6932 2.39873 15.2945 2.00403 14.6777 2C12.8967 2 11.116 2 9.33543 2C8.70314 2.00336 8.30981 2.40276 8.30108 3.03778C8.29437 3.51706 8.29504 3.99634 8.30108 4.47495C8.30981 5.13346 8.69576 5.50803 9.36295 5.51139C9.92543 5.51139 10.4879 5.52347 11.0497 5.50736C11.288 5.50065 11.3598 5.58254 11.3491 5.81144C11.3337 6.14372 11.3444 6.47801 11.3457 6.81095C11.3457 7.39764 11.4739 7.54398 12.0492 7.62654C12.1942 7.64635 12.3319 7.70256 12.4494 7.78992C12.5668 7.87728 12.6603 7.99296 12.721 8.12618C12.7817 8.2594 12.8077 8.40582 12.7965 8.55179C12.7854 8.69776 12.7375 8.83855 12.6573 8.96102C12.2955 9.51548 11.5424 9.47655 11.1565 8.88315C10.9323 8.53946 10.6067 8.43474 10.3141 8.61464C10.0214 8.79454 9.94826 9.15165 10.1543 9.49266C10.2718 9.68598 10.4228 9.85917 10.5658 10.0545C10.5281 10.0877 10.4882 10.1182 10.4463 10.1458C9.17098 10.8661 7.88962 11.5877 6.60692 12.2999C6.48657 12.3583 6.35401 12.387 6.2203 12.3838C5.28059 12.3905 4.34558 12.3838 3.40856 12.3892C2.59638 12.3918 2.00503 12.9792 2.00369 13.7881C1.99877 16.0583 1.99877 18.3287 2.00369 20.5994C2.00503 21.4116 2.59235 22.0037 3.40453 22.0037C9.13228 22.0064 14.86 22.0064 20.5878 22.0037C21.4194 22.0037 21.9973 21.4183 21.9973 20.5826C22.0009 18.3303 22.0027 16.0796 22.0027 13.8304ZM9.82139 4.34943C9.52673 4.34943 9.43746 4.26015 9.46162 3.97889C9.4831 3.72314 9.46632 3.46403 9.46632 3.19351H14.5139V4.34406H14.1897C12.7331 4.34406 11.2773 4.336 9.82139 4.34943ZM10.8826 11.2453C11.1994 11.0668 11.5142 10.8849 11.8357 10.7157C11.9089 10.6768 12.0284 10.6439 12.0888 10.6768C13.0688 11.2138 14.0427 11.7629 15.0019 12.3603H9.01123C9.00385 12.3435 8.99646 12.3274 8.98975 12.3106C9.6207 11.9566 10.2516 11.602 10.8826 11.2467V11.2453ZM20.822 20.3886C20.822 20.8216 20.822 20.8229 20.3857 20.8229H3.61596C3.18235 20.8229 3.18168 20.8229 3.18101 20.3866C3.18101 18.2524 3.18101 16.1185 3.18101 13.9848C3.18101 13.5746 3.19175 13.5639 3.6012 13.5639C6.41182 13.5639 9.22244 13.5639 12.0331 13.5639C14.8119 13.5639 17.5912 13.5639 20.371 13.5639C20.8207 13.5639 20.8214 13.5639 20.8214 14.0177L20.822 20.3886Z" fill="#4E5C62"/>
<path d="M6.31273 15.4736C6.31273 15.046 6.08048 14.7728 5.72876 14.7715C5.37705 14.7701 5.13809 15.0501 5.13675 15.4696C5.13362 16.6233 5.13362 17.7774 5.13675 18.932C5.13675 19.3475 5.39248 19.6281 5.74085 19.618C6.08921 19.6079 6.31004 19.3448 6.31205 18.936C6.31205 18.3641 6.31205 17.7949 6.31205 17.2203C6.3134 16.6383 6.31541 16.0556 6.31273 15.4736Z" fill="#4E5C62"/>
<path d="M9.44603 15.4427C9.44603 15.04 9.21043 14.7715 8.86677 14.7715C8.53854 14.7715 8.28079 15.0286 8.27811 15.4072C8.2696 16.6029 8.2696 17.7982 8.27811 18.9931C8.27811 19.3683 8.54659 19.6267 8.87818 19.6173C9.20976 19.6079 9.442 19.3535 9.44536 18.9662C9.45073 18.3842 9.44536 17.8016 9.44536 17.2209C9.4467 16.6275 9.4514 16.0355 9.44603 15.4427Z" fill="#4E5C62"/>
<path d="M18.2766 14.7715C17.935 14.7715 17.6947 15.04 17.692 15.4428C17.6879 16.0147 17.692 16.5839 17.692 17.1585C17.692 17.7626 17.6879 18.3668 17.692 18.9676C17.6953 19.3495 17.9282 19.6093 18.2618 19.6194C18.5954 19.6294 18.866 19.3576 18.866 18.9656C18.8718 17.7908 18.8718 16.6159 18.866 15.4407C18.8653 15.0427 18.6149 14.7708 18.2766 14.7715Z" fill="#4E5C62"/>
<path d="M15.7287 15.4514C15.7233 15.0332 15.4675 14.758 15.1185 14.7721C14.7695 14.7862 14.5587 15.0473 14.558 15.4615C14.5554 16.6152 14.5554 17.7691 14.558 18.9232C14.558 19.3522 14.7916 19.6227 15.1447 19.6186C15.4978 19.6146 15.7253 19.3421 15.7293 18.9125C15.734 18.3412 15.7293 17.7713 15.7293 17.1974C15.73 16.6154 15.7354 16.0334 15.7287 15.4514Z" fill="#4E5C62"/>
<path d="M12.5833 15.4749C12.5833 15.0413 12.3564 14.7741 12.0047 14.7721C11.653 14.7701 11.4221 15.0406 11.4207 15.4695C11.4171 16.6228 11.4171 17.7762 11.4207 18.9299C11.4207 19.3575 11.6624 19.628 12.0141 19.6186C12.3658 19.6092 12.5786 19.3501 12.5826 18.936C12.5873 18.364 12.5826 17.7948 12.5826 17.2209C12.5826 16.6469 12.5873 16.0569 12.5833 15.4749Z" fill="#4E5C62"/>
</svg>
